<svg version="1.1" id="Layer_1" xmlns="http://www.w3.org/2000/svg" xmlns:xlink="http://www.w3.org/1999/xlink" x="0px" y="0px"
	 width="100%" viewBox="0 0 2000 2000" enable-background="new 0 0 2000 2000" xml:space="preserve">
<path fill="#FFFFFF" opacity="1.000000" stroke="none" 
	d="
M1110.000000,2001.000000 
	C740.000000,2001.000000 370.500000,2001.000000 1.000000,2001.000000 
	C1.000000,1334.333374 1.000000,667.666687 1.000000,1.000000 
	C667.666687,1.000000 1334.333374,1.000000 2001.000000,1.000000 
	C2001.000000,667.666687 2001.000000,1334.333374 2001.000000,2001.000000 
	C1704.166626,2001.000000 1407.333374,2001.000000 1110.000000,2001.000000 
M861.500000,1983.000244 
	C887.602600,1983.000244 913.705200,1983.000244 940.202026,1983.000244 
	C940.202026,1923.666870 940.202026,1864.928833 940.202026,1805.794800 
	C1001.671204,1805.794800 1062.742554,1805.794800 1123.695679,1805.794800 
	C1123.695679,1763.324341 1123.695679,1721.253174 1123.695679,1678.785400 
	C1062.320679,1678.785400 1001.249390,1678.785400 940.224792,1678.785400 
	C940.224792,1642.604858 940.224792,1606.823730 940.224792,1571.365845 
	C1106.805908,1554.483032 1248.712402,1487.008911 1362.673584,1364.374634 
	C1476.451538,1241.937500 1535.137939,1096.036987 1538.041992,928.861206 
	C1540.949097,761.502991 1485.743652,614.461548 1377.579590,486.595398 
	C1459.938110,404.910736 1542.164917,323.356659 1624.060181,242.131546 
	C1630.147217,327.427643 1636.297485,413.607422 1642.466919,500.056976 
	C1686.404663,497.350800 1729.883911,494.672882 1773.503296,491.986328 
	C1762.296997,331.988892 1751.137329,172.657852 1739.955933,13.015749 
	C1579.155273,24.335936 1418.727417,35.629875 1257.956055,46.947998 
	C1260.585693,89.907448 1263.184326,132.360596 1265.794922,175.009628 
	C1349.948120,170.665665 1433.468872,166.354340 1517.946045,161.993637 
	C1437.953491,240.261047 1358.776489,317.730530 1279.634521,395.165710 
	C1165.635132,310.197113 1037.941528,265.057404 896.001404,262.282318 
	C754.093323,259.507874 624.093323,298.409271 507.658203,379.666901 
	C294.474243,528.443542 184.460495,790.424622 242.214508,1058.378052 
	C269.163666,1183.410400 328.644562,1291.359497 419.216003,1381.599243 
	C529.306396,1491.286743 662.485901,1553.256470 816.723022,1570.506714 
	C816.723022,1606.614624 816.723022,1642.687622 816.723022,1679.158203 
	C756.376099,1679.158203 696.304749,1679.158203 636.280823,1679.158203 
	C636.280823,1721.628540 636.280823,1763.699585 636.280823,1806.167969 
	C696.632263,1806.167969 756.703613,1806.167969 817.171326,1806.167969 
	C817.171326,1865.303833 817.171326,1924.041870 817.171326,1983.000244 
	C831.879456,1983.000244 846.189697,1983.000244 861.500000,1983.000244 
z"/>
<path fill="#000000" opacity="1.000000" stroke="none" 
	d="
M861.000000,1983.000244 
	C846.189697,1983.000244 831.879456,1983.000244 817.171326,1983.000244 
	C817.171326,1924.041870 817.171326,1865.303833 817.171326,1806.167969 
	C756.703613,1806.167969 696.632263,1806.167969 636.280823,1806.167969 
	C636.280823,1763.699585 636.280823,1721.628540 636.280823,1679.158203 
	C696.304749,1679.158203 756.376099,1679.158203 816.723022,1679.158203 
	C816.723022,1642.687622 816.723022,1606.614624 816.723022,1570.506714 
	C662.485901,1553.256470 529.306396,1491.286743 419.216003,1381.599243 
	C328.644562,1291.359497 269.163666,1183.410400 242.214508,1058.378052 
	C184.460495,790.424622 294.474243,528.443542 507.658203,379.666901 
	C624.093323,298.409271 754.093323,259.507874 896.001404,262.282318 
	C1037.941528,265.057404 1165.635132,310.197113 1279.634521,395.165710 
	C1358.776489,317.730530 1437.953491,240.261047 1517.946045,161.993637 
	C1433.468872,166.354340 1349.948120,170.665665 1265.794922,175.009628 
	C1263.184326,132.360596 1260.585693,89.907448 1257.956055,46.947998 
	C1418.727417,35.629875 1579.155273,24.335936 1739.955933,13.015749 
	C1751.137329,172.657852 1762.296997,331.988892 1773.503296,491.986328 
	C1729.883911,494.672882 1686.404663,497.350800 1642.466919,500.056976 
	C1636.297485,413.607422 1630.147217,327.427643 1624.060181,242.131546 
	C1542.164917,323.356659 1459.938110,404.910736 1377.579590,486.595398 
	C1485.743652,614.461548 1540.949097,761.502991 1538.041992,928.861206 
	C1535.137939,1096.036987 1476.451538,1241.937500 1362.673584,1364.374634 
	C1248.712402,1487.008911 1106.805908,1554.483032 940.224792,1571.365845 
	C940.224792,1606.823730 940.224792,1642.604858 940.224792,1678.785400 
	C1001.249390,1678.785400 1062.320679,1678.785400 1123.695679,1678.785400 
	C1123.695679,1721.253174 1123.695679,1763.324341 1123.695679,1805.794800 
	C1062.742554,1805.794800 1001.671204,1805.794800 940.202026,1805.794800 
	C940.202026,1864.928833 940.202026,1923.666870 940.202026,1983.000244 
	C913.705200,1983.000244 887.602600,1983.000244 861.000000,1983.000244 
M1315.980957,1042.414551 
	C1324.321777,1012.847778 1329.597412,982.715088 1331.772583,952.100220 
	C1336.608643,884.030884 1327.412598,817.883118 1302.878906,754.136597 
	C1268.724609,665.392273 1212.364502,593.784729 1134.378174,539.500793 
	C1071.207886,495.529846 1000.981262,469.553192 924.565430,460.816833 
	C873.866638,455.020630 823.436646,457.522858 773.588318,468.831299 
	C678.615906,490.376465 597.880005,536.777283 532.477417,608.954224 
	C461.928772,686.810242 422.782196,778.579590 414.283081,883.256470 
	C410.730927,927.005676 413.604675,970.497681 422.986816,1013.409912 
	C447.262512,1124.442749 504.612823,1214.764038 594.597778,1283.992065 
	C666.370422,1339.208740 748.067139,1369.484863 838.167053,1376.743042 
	C886.640076,1380.647949 934.729248,1376.842163 981.937256,1364.927979 
	C1097.564087,1335.746704 1188.801636,1271.447021 1255.851074,1172.965576 
	C1282.994995,1133.096802 1302.496460,1089.540649 1315.980957,1042.414551 
z"/>
<path fill="#FFFFFF" opacity="1.000000" stroke="none" 
	d="
M1315.906982,1042.812988 
	C1302.496460,1089.540649 1282.994995,1133.096802 1255.851074,1172.965576 
	C1188.801636,1271.447021 1097.564087,1335.746704 981.937256,1364.927979 
	C934.729248,1376.842163 886.640076,1380.647949 838.167053,1376.743042 
	C748.067139,1369.484863 666.370422,1339.208740 594.597778,1283.992065 
	C504.612823,1214.764038 447.262512,1124.442749 422.986816,1013.409912 
	C413.604675,970.497681 410.730927,927.005676 414.283081,883.256470 
	C422.782196,778.579590 461.928772,686.810242 532.477417,608.954224 
	C597.880005,536.777283 678.615906,490.376465 773.588318,468.831299 
	C823.436646,457.522858 873.866638,455.020630 924.565430,460.816833 
	C1000.981262,469.553192 1071.207886,495.529846 1134.378174,539.500793 
	C1212.364502,593.784729 1268.724609,665.392273 1302.878906,754.136597 
	C1327.412598,817.883118 1336.608643,884.030884 1331.772583,952.100220 
	C1329.597412,982.715088 1324.321777,1012.847778 1315.906982,1042.812988 
z"/>
</svg>